#!OML:ASF E:\Mandelcareful walks\Project 1\Capture day 1\Session 1\Subject1.ASF
:FULLY-SPECIFIED
:DEGREES
157
root -24.4438 14.916 -2.76921 -156.497 120.781 -177.234
lowerback 31.6434 0.388807 -1.28601
upperback 8.49466 0.583805 -0.301115
thorax -7.68407 0.494936 0.162777
lowerneck -33.907 9.46526 3.08671
upperneck 13.0884 13.9895 -10.8784
head 10.6418 5.25949 -1.8237
rclavicle -6.95746e-015 4.96962e-014
rhumerus -21.8033 22.4321 -87.9866
rradius 45.4449
rwrist -67.9486
rhand 7.79764 -39.2871
rfingers 7.12502
rthumb 33.0346 -66.28
lclavicle -6.95746e-015 4.96962e-014
lhumerus 45.2722 -85.8472 52.759
lradius 45.3799
lwrist 1.36648
lhand -39.011 -32.4972
lfingers 7.12502
lthumb -12.0142 -2.86207
rfemur -52.5537 -7.30705 7.2359
rtibia 60.8847
rfoot -24.5752 -12.2734
rtoes -15.5063
lfemur -56.0322 11.7865 -23.211
ltibia 66.9306
lfoot -29.0548 8.31236
ltoes -4.94455
158
root -24.4151 14.9126 -2.70615 -155.78 121.03 -176.218
lowerback 31.4843 0.253677 -0.984378
upperback 8.44642 0.508261 -0.242069
thorax -7.66412 0.455479 0.0835315
lowerneck -34.247 9.56513 3.40482
upperneck 13.5256 14.1899 -11.4951
head 10.9617 5.24732 -2.03813
rclavicle -3.37934e-014 -1.39149e-015
rhumerus -21.8274 22.2019 -87.9199
rradius 45.6102
rwrist -67.8139
rhand 7.92827 -39.2966
rfingers 7.12502
rthumb 33.1588 -66.2632
lclavicle -3.37934e-014 -1.39149e-015
lhumerus 42.3046 -85.8911 55.5787
lradius 45.7976
lwrist 1.79062
lhand -39.7419 -32.492
lfingers 7.12502
lthumb -12.719 -2.89938
rfemur -52.8595 -7.45824 7.14456
rtibia 61.235
rfoot -24.3406 -13.2265
rtoes -17.4448
lfemur -55.5608 12.1711 -23.7274
ltibia 66.828
lfoot -29.0884 8.11834
ltoes -5.32224
159
root -24.3898 14.9014 -2.63656 -155.174 121.145 -175.292
lowerback 31.3486 0.130403 -0.632005
upperback 8.39335 0.476774 -0.0420041
thorax -7.66208 0.436 0.116893
lowerneck -34.4673 9.64902 3.67898
upperneck 13.9807 14.45 -12.2945
head 11.2991 5.23822 -2.30414
rclavicle -1.82882e-014 -4.96962e-015
rhumerus -22.0095 22.0278 -87.7396
rradius 45.8999
rwrist -67.7129
rhand 7.61667 -39.567
rfingers 7.12502
rthumb 32.8625 -66.5962
lclavicle -1.82882e-014 -4.96962e-015
lhumerus 39.6638 -86.012 58.344
lradius 46.0008
lwrist 2.79951
lhand -41.2931 -34.0954
lfingers 7.12502
lthumb -14.2141 -4.60176
rfemur -52.9043 -7.67797 7.12456
rtibia 61.6337
rfoot -24.3778 -15.0262
rtoes -21.6216
lfemur -55.1677 12.5749 -24.1179
ltibia 66.8389
lfoot -28.9477 7.8012
ltoes -6.15028
160
root -24.368 14.8869 -2.56166 -154.454 121.219 -174.304
lowerback 31.1136 0.0149727 -0.23024
upperback 8.29701 0.467583 0.179506
thorax -7.66284 0.425108 0.137859
lowerneck -34.6191 9.69134 3.86897
upperneck 14.6312 14.7135 -13.0231
head 11.6955 5.22338 -2.53622
rclavicle 1.98785e-015 3.18055e-015
rhumerus -22.3322 21.7667 -87.5393
rradius 46.1009
rwrist -67.6691
rhand 7.386 -39.9064
rfingers 7.12502
rthumb 32.643 -66.9812
lclavicle 1.98785e-015 3.18055e-015
lhumerus 26.4787 -84.5133 71.9757
lradius 45.4813
lwrist -1.25482
lhand -37.1857 -33.6851
lfingers 7.12502
lthumb -10.2538 -3.95501
rfemur -52.8044 -7.94123 6.98099
rtibia 62.0235
rfoot -24.4313 -15.8863
rtoes -22.3979
lfemur -54.9299 13.0262 -24.5479
ltibia 67.0034
lfoot -28.853 7.37399
ltoes -7.1619
161
root -24.3477 14.8732 -2.48126 -153.653 121.304 -173.223
lowerback 30.826 -0.0801715 0.217862
upperback 8.23489 0.492057 0.349686
thorax -7.59843 0.430618 0.0623167
lowerneck -34.9645 9.64992 3.96323
upperneck 15.4895 14.9166 -13.6294
head 12.1866 5.16768 -2.72544
rclavicle 3.65764e-014 -1.74931e-014
rhumerus -22.6408 21.3663 -87.3792
rradius 46.2461
rwrist -67.8975
rhand 6.80008 -40.5505
rfingers 7.12502
rthumb 32.0854 -67.7393
lclavicle 3.65764e-014 -1.74931e-014
lhumerus 39.8293 -86.0024 58.5157
lradius 46.631
lwrist 3.50893
lhand -40.974 -34.6099
lfingers 7.12502
lthumb -13.9066 -5.09487
rfemur -52.4772 -8.13886 6.59822
rtibia 62.3534
rfoot -24.5158 -15.8138
rtoes -21.7643
lfemur -54.7822 13.5564 -25.0333
ltibia 67.3776
lfoot -28.8292 6.71107
ltoes -7.3748
162
root -24.3302 14.8566 -2.39758 -153.085 121.381 -172.282
lowerback 30.5363 -0.405353 1.24775
upperback 8.3021 0.359499 0.080562
thorax -7.3793 0.364882 -0.785568
lowerneck -35.3617 9.72266 4.41504
upperneck 16.4069 15.0799 -14.0968
head 12.7249 5.12535 -2.93413
rclavicle -2.38542e-015 2.62396e-014
rhumerus -22.729 20.6272 -87.8947
rradius 46.3096
rwrist -68.187
rhand 5.58127 -41.5031
rfingers 7.12502
rthumb 30.9242 -68.919
lclavicle -2.38542e-015 2.62396e-014
lhumerus 43.3413 -85.9334 54.5898
lradius 46.8003
lwrist 3.65744
lhand -40.385 -34.4485
lfingers 7.12502
lthumb -13.3389 -4.89544
rfemur -51.9276 -8.16251 6.16825
rtibia 62.6721
rfoot -24.9915 -15.8688
rtoes -23.1859
lfemur -54.6873 14.2428 -25.4069
ltibia 68.0408
lfoot -28.5185 5.85291
ltoes -7.12497
163
root -24.3176 14.8318 -2.31317 -152.379 121.238 -171.27
lowerback 30.5246 -0.549501 1.81881
upperback 8.15639 0.372998 0.392337
thorax -7.53786 0.362164 -0.771956
lowerneck -35.8205 9.6746 4.2455
upperneck 17.6652 15.4956 -14.66
head 13.423 5.11413 -3.03393
rclavicle -3.97569e-014 -4.21423e-014
rhumerus -23.138 20.2258 -87.6462
rradius 46.2684
rwrist -68.2252
rhand 5.43415 -41.7855
rfingers 7.12502
rthumb 30.784 -69.2279
lclavicle -3.97569e-014 -4.21423e-014
lhumerus 41.4248 -85.739 57.0004
lradius 46.7588
lwrist 3.36401
lhand -40.0426 -33.8873
lfingers 7.12502
lthumb -13.0089 -4.3129
rfemur -51.5349 -8.39376 5.84994
rtibia 63.1181
rfoot -25.414 -15.5816
rtoes -22.7438
lfemur -54.9929 14.9008 -25.7821
ltibia 69.1039
lfoot -27.4902 5.02059
ltoes -7.81166
164
root -24.3064 14.8022 -2.22863 -151.497 121.122 -170.212
lowerback 30.1668 -0.767146 2.58542
upperback 8.14132 0.322105 0.496162
thorax -7.38276 0.333701 -1.07862
lowerneck -36.2041 9.51481 3.95541
upperneck 18.8388 15.7261 -14.9114
head 14.0214 5.06004 -3.04573
rclavicle 0 2.70347e-014
rhumerus -23.2006 19.5321 -87.4981
rradius 45.8663
rwrist -67.8715
rhand 6.78972 -40.9117
rfingers 7.12502
rthumb 32.0755 -68.1025
lclavicle 0 2.70347e-014
lhumerus 55.7132 -86.2553 42.7693
lradius 47.1651
lwrist 6.03763
lhand -41.9025 -34.3281
lfingers 7.12502
lthumb -14.8012 -4.87669
rfemur -51.5346 -8.85168 5.67223
rtibia 63.713
rfoot -25.514 -15.448
rtoes -22.8098
lfemur -55.8235 15.6572 -26.2486
ltibia 70.5735
lfoot -25.6969 4.3168
ltoes -9.07002
165
root -24.301 14.7743 -2.1505 -150.903 121.203 -169.385
lowerback 29.9669 -0.915289 3.28922
upperback 8.19276 0.340004 0.563087
thorax -7.2236 0.341675 -1.41495
lowerneck -36.5515 9.36972 3.76473
upperneck 20.041 15.9623 -15.1924
head 14.6565 5.00705 -3.09065
rclavicle 6.91771e-014 -2.94201e-014
rhumerus -23.0761 18.8984 -87.3515
rradius 45.5156
rwrist -67.7309
rhand 7.76142 -40.1636
rfingers 7.12502
rthumb 33.0002 -67.1638
lclavicle 6.91771e-014 -2.94201e-014
lhumerus 58.5771 -86.1469 40.1973
lradius 47.0818
lwrist 6.45127
lhand -42.6107 -36.3195
lfingers 7.12502
lthumb -15.4835 -6.91957
rfemur -51.6008 -9.19581 5.55114
rtibia 64.4002
rfoot -25.8799 -15.5092
rtoes -22.5192
lfemur -56.8335 16.6447 -26.5876
ltibia 72.3269
lfoot -23.4512 3.42059
ltoes -9.40799
166
root -24.2945 14.7466 -2.07707 -150.619 121.346 -168.676
lowerback 30.0605 -1.07197 3.9062
upperback 8.26864 0.339561 0.644454
thorax -7.17618 0.34312 -1.68014
lowerneck -36.664 9.39903 3.91425
upperneck 21.1363 16.3811 -15.7868
head 15.3205 5.03129 -3.27785
rclavicle -9.54166e-015 -3.02153e-014
rhumerus -22.999 18.5099 -87.222
rradius 45.3976
rwrist -68.0427
rhand 7.74771 -40.2105
rfingers 7.12502
rthumb 32.9871 -67.2134
lclavicle -9.54166e-015 -3.02153e-014
lhumerus 46.5575 -85.2939 52.6901
lradius 46.6905
lwrist 3.60341
lhand -40.0556 -34.5785
lfingers 7.12502
lthumb -13.0213 -5.00488
rfemur -51.3561 -9.39815 5.31807
rtibia 65.1039
rfoot -26.7054 -14.9617
rtoes -19.2868
lfemur -57.6713 17.6755 -26.6952
ltibia 74.1577
lfoot -21.0902 2.2007
ltoes -9.64481
167
root -24.2865 14.7108 -2.00315 -150.198 121.544 -167.853
lowerback 30.0788 -1.18599 4.33841
upperback 8.34201 0.330312 0.68375
thorax -7.09754 0.342086 -1.88209
lowerneck -36.4771 9.43295 4.0041
upperneck 22.0515 16.7786 -16.261
head 15.8428 5.08712 -3.41671
rclavicle 3.49861e-014 -1.05753e-013
rhumerus -22.9704 18.1996 -87.09
rradius 45.3936
rwrist -68.3588
rhand 7.78115 -40.3647
rfingers 7.12502
rthumb 33.0189 -67.3609
lclavicle 3.49861e-014 -1.05753e-013
lhumerus 61.9255 -85.9415 37.2388
lradius 47.6794
lwrist 7.30132
lhand -43.9897 -35.0728
lfingers 7.12502
lthumb -16.8113 -5.78058
rfemur -51.1817 -9.58411 4.96902
rtibia 65.7969
rfoot -27.4453 -14.4166
rtoes -18.2166
lfemur -58.5889 18.6849 -26.8223
ltibia 75.9008
lfoot -18.7423 0.943649
ltoes -10.9375
168
root -24.2749 14.6759 -1.93292 -149.632 121.791 -166.927
lowerback 30.0631 -1.25662 4.54208
upperback 8.38742 0.307676 0.741399
thorax -7.03816 0.334191 -1.92687
lowerneck -36.1731 9.52219 3.94846
upperneck 22.9998 17.3321 -16.6495
head 16.3694 5.2109 -3.46103
rclavicle 2.70347e-014 -2.94201e-014
rhumerus -23.0319 18.2924 -86.9257
rradius 45.5028
rwrist -68.6392
rhand 7.82747 -40.0543
rfingers 7.12502
rthumb 33.063 -67.0412
lclavicle 2.70347e-014 -2.94201e-014
lhumerus 44.2833 -85.0301 55.2004
lradius 47.1544
lwrist 3.95805
lhand -40.6734 -34.3964
lfingers 7.12502
lthumb -13.6168 -4.86171
rfemur -51.1593 -9.84985 4.61556
rtibia 66.44
rfoot -27.7959 -14.5521
rtoes -21.041
lfemur -59.4833 19.6303 -27.0441
ltibia 77.3765
lfoot -16.7579 -0.0142341
ltoes -12.8706
